<svg xmlns="http://www.w3.org/2000/svg" version="1.1" xmlns:xlink="http://www.w3.org/1999/xlink"
     xmlns:svgjs="http://svgjs.com/svgjs" viewBox="0 0 24 24" height="24" width="24">
    <title>pollution skull 1 (From Streamline App : https://app.streamlineicons.com)</title>
    <g transform="matrix(1,0,0,1,0,0)">
        <path d="M 12,1.5c5.799,0,10.5,4.701,10.5,10.5S17.799,22.5,12,22.5S1.5,17.799,1.5,12S6.201,1.5,12,1.5z "
              stroke="#ffd400" fill="none" stroke-width="1.5" stroke-linecap="round" stroke-linejoin="round"></path>
        <path d="M 16.5,10.875 C16.5,9.011,14.485,7.5,12,7.5s-4.5,1.511-4.5,3.375c0,1.246,0.16,2.322,1.5,2.907V16.5h6v-2.718 C16.34,13.2,16.5,12.121,16.5,10.875z "
              stroke="#ffd400" fill="none" stroke-width="1.5" stroke-linecap="round" stroke-linejoin="round"></path>
        <path d="M 12,14.25v2.25 " stroke="#ffd400" fill="none" stroke-width="1.5" stroke-linecap="round"
              stroke-linejoin="round"></path>
        <path d="M 10.5,10.875c0.207,0,0.375,0.168,0.375,0.375 " stroke="#ffd400" fill="none" stroke-width="1.5"
              stroke-linecap="round" stroke-linejoin="round"></path>
        <path d="M 10.125,11.25 c0-0.207,0.168-0.375,0.375-0.375 " stroke="#ffd400" fill="none" stroke-width="1.5"
              stroke-linecap="round" stroke-linejoin="round"></path>
        <path d="M 10.5,11.625c-0.207,0-0.375-0.168-0.375-0.375 " stroke="#ffd400" fill="none" stroke-width="1.5"
              stroke-linecap="round" stroke-linejoin="round"></path>
        <path d="M 10.875,11.25c0,0.207-0.168,0.375-0.375,0.375 " stroke="#ffd400" fill="none" stroke-width="1.5"
              stroke-linecap="round" stroke-linejoin="round"></path>
        <path d="M 13.5,10.875c0.207,0,0.375,0.168,0.375,0.375 " stroke="#ffd400" fill="none" stroke-width="1.5"
              stroke-linecap="round" stroke-linejoin="round"></path>
        <path d="M 13.125,11.25c0-0.207,0.168-0.375,0.375-0.375 " stroke="#ffd400" fill="none" stroke-width="1.5"
              stroke-linecap="round" stroke-linejoin="round"></path>
        <path d="M 13.5,11.625 c-0.207,0-0.375-0.168-0.375-0.375 " stroke="#ffd400" fill="none" stroke-width="1.5"
              stroke-linecap="round" stroke-linejoin="round"></path>
        <path d="M 13.875,11.25c0,0.207-0.168,0.375-0.375,0.375" stroke="#ffd400" fill="none" stroke-width="1.5"
              stroke-linecap="round" stroke-linejoin="round"></path>
    </g>
</svg>
