<svg xmlns="http://www.w3.org/2000/svg" width="1000" height="1000" viewBox="0 0 1000 1000">
  <g fill="none" fill-rule="evenodd" stroke="#FFD400" transform="translate(44 41)">
    <circle cx="456.5" cy="456.5" r="456.5" fill="#FFF" stroke-width="58"/>
    <path stroke-linecap="round" stroke-linejoin="round" stroke-width="62.5" d="M643.5 412.125C643.5 334.458333 559.541667 271.5 456 271.5 352.458333 271.5 268.5 334.458333 268.5 412.125 268.5 464.041667 275.166667 508.875 331 533.25L331 646.5 581 646.5 581 533.25C636.833333 509 643.5 464.041667 643.5 412.125zM456 552.75L456 646.5M393.5 412.125C402.129449 412.125 409.125 419.120551 409.125 427.75M377.875 427.75C377.875 419.120551 384.870551 412.125 393.5 412.125M393.5 443.375C384.870551 443.375 377.875 436.379449 377.875 427.75M409.125 427.75C409.125 436.379449 402.129449 443.375 393.5 443.375M518.5 412.125C527.129449 412.125 534.125 419.120551 534.125 427.75M502.875 427.75C502.875 419.120551 509.870551 412.125 518.5 412.125M518.5 443.375C509.870551 443.375 502.875 436.379449 502.875 427.75M534.125 427.75C534.125 436.379449 527.129449 443.375 518.5 443.375"/>
  </g>
</svg>
